<?xml version="1.0" encoding="iso-8859-1"?>
<!-- Generator: Adobe Illustrator 19.0.0, SVG Export Plug-In . SVG Version: 6.00 Build 0)  -->
<svg version="1.1" id="Layer_1" xmlns="http://www.w3.org/2000/svg" xmlns:xlink="http://www.w3.org/1999/xlink" x="0px" y="0px"
	 viewBox="0 0 512 512" style="enable-background:new 0 0 512 512;" xml:space="preserve">
<g>
	<g>
		<path d="M343.522,242.357c14.228-10.098,24.261-18.979,30.684-27.153c20.968-26.683,32.055-58.759,32.055-92.77v-19.772
			c19.391-6.914,33.391-25.273,33.391-47.01V16.696C439.652,7.479,432.174,0,422.957,0H89.044c-9.217,0-16.696,7.479-16.696,16.696
			v38.956c0,21.737,14,40.096,33.391,47.01v19.772c0,34.011,11.087,66.087,32.055,92.772c6.423,8.174,16.456,17.054,30.695,27.153
			c9.431,6.679,9.504,20.556-0.011,27.282c-14.228,10.098-24.261,18.979-30.684,27.153c-20.968,26.684-32.055,58.76-32.055,92.771
			v19.772c-19.391,6.914-33.391,25.274-33.391,47.01v38.956c0,9.217,7.479,16.696,16.696,16.696h333.913
			c9.217,0,16.696-7.479,16.696-16.696v-38.956c0-21.737-14-40.096-33.391-47.01v-19.772c0-34.011-11.087-66.087-32.055-92.772
			c-6.423-8.174-16.456-17.054-30.695-27.153C334.08,262.959,334.007,249.082,343.522,242.357z M324.195,296.88
			c14.217,10.076,20.76,16.728,23.75,20.543c16.305,20.739,24.924,45.685,24.924,72.142v16.696h-34.874
			c-4.526-26.473-19.564-38.623-33.212-49.369c-13.272-10.457-25.805-20.336-32.598-47.087c-1.88-7.402-8.544-12.587-16.185-12.587
			s-14.305,5.185-16.185,12.587c-6.794,26.75-19.326,36.63-32.598,47.087c-13.649,10.748-28.688,22.898-33.212,49.369H139.13
			v-16.696c0-26.457,8.619-51.403,24.924-72.141c2.99-3.816,9.532-10.467,23.739-20.543c28.235-19.979,28.182-61.811,0.01-81.762
			c-14.217-10.076-20.76-16.728-23.75-20.543c-16.304-20.738-24.923-45.684-24.923-72.141v-16.696H372.87v16.696
			c0,26.457-8.619,51.403-24.924,72.141c-2.99,3.816-9.532,10.467-23.739,20.543C295.972,235.098,296.024,276.929,324.195,296.88z"
			/>
	</g>
</g>
<g>
	<g>
		<path d="M313.868,139.13H198.131c-12.819,0-20.858,13.887-14.478,25.011c9.532,16.62,20.576,24.044,29.446,30.011
			c11.37,7.641,19.576,13.163,26.75,41.434c1.88,7.402,8.544,12.587,16.185,12.587h0.011c7.641,0,14.305-5.196,16.174-12.609
			c7.141-28.261,15.348-33.783,26.695-41.424c8.87-5.967,19.902-13.391,29.434-30C334.727,153.019,326.687,139.13,313.868,139.13z"
			/>
	</g>
</g>
<g>
</g>
<g>
</g>
<g>
</g>
<g>
</g>
<g>
</g>
<g>
</g>
<g>
</g>
<g>
</g>
<g>
</g>
<g>
</g>
<g>
</g>
<g>
</g>
<g>
</g>
<g>
</g>
<g>
</g>
</svg>
